<svg xmlns="http://www.w3.org/2000/svg">
  <defs>
    <style>
      :root svg:not(:target) {
        display: none;
      }
    </style>
  </defs>
  <svg id="logo" viewBox="0 0 84 25" fill="#101010">
    <path d="M.11.4h4.4v24.5H.11V.4Zm13.93 3.65h-7.3V.35h18.8v3.7h-7.2v20.8h-4.4V4.05h.1Zm30.33 21.23c-2.7 0-5-.5-7-1.5a11 11 0 0 1-4.7-4.3c-1-1.9-1.6-4-1.6-6.5s.5-4.7 1.6-6.7c1.2-2 2.7-3.5 4.6-4.5 2-1 4.1-1.6 6.5-1.6 2.4 0 4.5.5 6.5 1.6 1.8 1.1 3.4 2.5 4.5 4.5a12.9 12.9 0 0 1 .6 11.4 9.7 9.7 0 0 1-2.9 3.6h4.4v4h-12.5Zm-.6-4c2.5 0 4.6-.8 6-2.2a8 8 0 0 0 2.3-6.1c0-1.8-.4-3.3-1-4.6a7.6 7.6 0 0 0-3-3c-1.3-.7-2.7-1-4.3-1-1.5 0-3 .3-4.2 1a7.6 7.6 0 0 0-3 3 9.2 9.2 0 0 0-1.1 4.6c0 2.6.7 4.7 2.2 6.1a8.5 8.5 0 0 0 6.1 2.2ZM58.78.47h4.2l8 18 8-18h4.3v24.5h-4.1V9.07l-7.1 15.9h-2l-7.3-15.9v15.9h-4.1V.47h.1Z"/>
  </svg>
  <svg id="chevron-left" viewBox="0 0 16 16" fill="currentColor">
    <path fill-rule="evenodd" d="M11.354 1.646a.5.5 0 0 1 0 .708L5.707 8l5.647 5.646a.5.5 0 0 1-.708.708l-6-6a.5.5 0 0 1 0-.708l6-6a.5.5 0 0 1 .708 0z"/>
  </svg>
  <svg id="chevron-right" viewBox="0 0 16 16" fill="currentColor">
    <path fill-rule="evenodd" d="M4.646 1.646a.5.5 0 0 1 .708 0l6 6a.5.5 0 0 1 0 .708l-6 6a.5.5 0 0 1-.708-.708L10.293 8 4.646 2.354a.5.5 0 0 1 0-.708z"/>
  </svg>
  <svg id="flag-uk" viewBox="0 0 24 24"><path fill="#F0F0F0" d="M12 24a12 12 0 1 0 0-24 12 12 0 0 0 0 24Z"/><path fill="#0052B4" d="M2.5 4.7a12 12 0 0 0-2 4.2h6.2L2.5 4.7ZM23.6 8.9a12 12 0 0 0-2-4.2l-4.3 4.2h6.3ZM.4 15.1a12 12 0 0 0 2 4.2l4.3-4.2H.4ZM19.3 2.5a12 12 0 0 0-4.2-2v6.2l4.2-4.2ZM4.7 21.5a12 12 0 0 0 4.2 2v-6.2l-4.2 4.2ZM8.9.4a12 12 0 0 0-4.2 2l4.2 4.3V.4ZM15.1 23.6a12 12 0 0 0 4.2-2l-4.2-4.3v6.3ZM17.3 15.1l4.2 4.2a12 12 0 0 0 2-4.2h-6.2Z"/><path fill="#D80027" d="M23.9 10.4H13.6V.1a12.1 12.1 0 0 0-3.2 0v10.3H.1a12.1 12.1 0 0 0 0 3.2h10.3v10.3a12.1 12.1 0 0 0 3.2 0V13.6h10.3a12.1 12.1 0 0 0 0-3.2Z"/><path fill="#D80027" d="m15.1 15.1 5.4 5.4.7-.8-4.6-4.6h-1.5ZM8.9 15.1l-5.4 5.4.8.7 4.6-4.6v-1.5ZM8.9 8.9 3.5 3.5l-.7.8 4.6 4.6h1.5ZM15.1 8.9l5.4-5.4a12 12 0 0 0-.8-.7l-4.6 4.6v1.5Z"/></svg>
  <svg id="location" viewBox="0 0 12 12" fill="none">
    <path stroke="#E2BEFF" stroke-linecap="round" stroke-linejoin="round" stroke-width="1.4"
      d="m7.5 10.5 3-9-9 3 3.8 2.3 2.2 3.7Z" />
  </svg>
</svg>
